<svg xmlns="http://www.w3.org/2000/svg" xmlns:xlink="http://www.w3.org/1999/xlink" version="1.1" data-diagram-type="DESCRIPTION" style="width:1335px;height:698px;background:#FFFFFF;" width="1335px" height="698px" viewBox="0 0 1335 698" zoomAndPan="magnify" preserveAspectRatio="none" contentStyleType="text/css"><?plantuml 1.2026.8?><defs/><g font-family="sans-serif" lengthAdjust="spacing"><g class="title" data-source-line="6"><text x="505.374" y="23.132" fill="#000" font-size="14" textLength="317.454" font-weight="700" font-family="Arial">Inkr8 responsabilidades y dependencias finales</text></g><!--cluster Android--><g class="cluster" data-qualified-name="Android" id="ent0001" data-source-line="7"><path d="M16.5,41.099 L67.323,41.099 A3.75,3.75 0 0 1 69.823,43.599 L76.823,62.047 L753.5,62.047 A2.5,2.5 0 0 1 756,64.547 L756,329.599 A2.5,2.5 0 0 1 753.5,332.099 L16.5,332.099 A2.5,2.5 0 0 1 14,329.599 L14,43.599 A2.5,2.5 0 0 1 16.5,41.099" style="stroke:#000;stroke-width:1.5;" fill="none"/><line x1="14" y1="62.047" x2="76.823" y2="62.047" style="stroke:#000;stroke-width:1.5;"/><text x="18" y="55.292" fill="#000" font-size="13" textLength="49.823" font-weight="700" font-family="Arial">Android</text></g><!--cluster Functions--><g class="cluster" data-qualified-name="Functions" id="ent0011" data-source-line="18"><path d="M60.5,366.099 L123.605,366.099 A3.75,3.75 0 0 1 126.105,368.599 L133.105,387.047 L749.5,387.047 A2.5,2.5 0 0 1 752,389.547 L752,671.599 A2.5,2.5 0 0 1 749.5,674.099 L60.5,674.099 A2.5,2.5 0 0 1 58,671.599 L58,368.599 A2.5,2.5 0 0 1 60.5,366.099" style="stroke:#000;stroke-width:1.5;" fill="none"/><line x1="58" y1="387.047" x2="133.105" y2="387.047" style="stroke:#000;stroke-width:1.5;"/><text x="62" y="380.292" fill="#000" font-size="13" textLength="62.105" font-weight="700" font-family="Arial">Functions</text></g><!--entity DB--><g class="entity" data-qualified-name="DB" id="ent0020" data-source-line="28"><path d="M768.5,541.599 C768.5,531.599 804.145,531.599 804.145,531.599 C804.145,531.599 839.789,531.599 839.789,541.599 L839.789,565.547 C839.789,575.547 804.145,575.547 804.145,575.547 C804.145,575.547 768.5,575.547 768.5,565.547 L768.5,541.599" style="stroke:#181818;stroke-width:0.5;" fill="#F1F1F1"/><path d="M768.5,541.599 C768.5,551.599 804.145,551.599 804.145,551.599 C804.145,551.599 839.789,551.599 839.789,541.599" style="stroke:#181818;stroke-width:0.5;" fill="none"/><text x="778.5" y="567.792" fill="#000" font-size="13" textLength="51.289" font-family="Arial">Firestore</text></g><g class="entity" data-qualified-name="GMN45" id="ent0046" data-source-line="54"><path d="M772,273.599 L772,313.496 A0,0 0 0 0 772,313.496 L1033.659,313.496 A0,0 0 0 0 1033.659,313.496 L1033.659,283.599 L1023.659,273.599 L852.733,273.599 L737.13,234.142 L844.733,273.599 L772,273.599 A0,0 0 0 0 772,273.599" style="stroke:#181818;stroke-width:0.5;" fill="#FAFAFA"/><path d="M1023.659,273.599 L1023.659,283.599 L1033.659,283.599 L1023.659,273.599" style="stroke:#181818;stroke-width:0.5;" fill="#FAFAFA"/><text x="778" y="290.792" fill="#000" font-size="13" textLength="148.833" font-family="Arial">No se afirma DIP integral.</text><text x="778" y="305.741" fill="#000" font-size="13" textLength="240.659" font-family="Arial">Identidad y generacion pertenecen al VM.</text></g><!--entity Root--><g class="entity" data-qualified-name="Android.Root" id="ent0002" data-source-line="8"><rect x="346.5" y="107.099" width="90.591" height="44.949" fill="#F1F1F1" style="stroke:#181818;stroke-width:0.5;" rx="2.5" ry="2.5"/><rect x="417.091" y="112.099" width="15" height="10" fill="#F1F1F1" style="stroke:#181818;stroke-width:0.5;"/><rect x="415.091" y="114.099" width="4" height="2" fill="#F1F1F1" style="stroke:#181818;stroke-width:0.5;"/><rect x="415.091" y="118.099" width="4" height="2" fill="#F1F1F1" style="stroke:#181818;stroke-width:0.5;"/><text x="361.5" y="139.292" fill="#000" font-size="13" textLength="50.591" font-family="Arial">AppRoot</text></g><!--entity W--><g class="entity" data-qualified-name="Android.W" id="ent0003" data-source-line="9"><rect x="42.5" y="189.099" width="168.578" height="44.949" fill="#F1F1F1" style="stroke:#181818;stroke-width:0.5;" rx="2.5" ry="2.5"/><rect x="191.078" y="194.099" width="15" height="10" fill="#F1F1F1" style="stroke:#181818;stroke-width:0.5;"/><rect x="189.078" y="196.099" width="4" height="2" fill="#F1F1F1" style="stroke:#181818;stroke-width:0.5;"/><rect x="189.078" y="200.099" width="4" height="2" fill="#F1F1F1" style="stroke:#181818;stroke-width:0.5;"/><text x="57.5" y="221.292" fill="#000" font-size="13" textLength="128.578" font-family="Arial">Writing y WritingEditor</text></g><!--entity WC--><g class="entity" data-qualified-name="Android.WC" id="ent0004" data-source-line="10"><rect x="264" y="271.099" width="154.156" height="44.949" fill="#F1F1F1" style="stroke:#181818;stroke-width:0.5;" rx="2.5" ry="2.5"/><rect x="398.156" y="276.099" width="15" height="10" fill="#F1F1F1" style="stroke:#181818;stroke-width:0.5;"/><rect x="396.156" y="278.099" width="4" height="2" fill="#F1F1F1" style="stroke:#181818;stroke-width:0.5;"/><rect x="396.156" y="282.099" width="4" height="2" fill="#F1F1F1" style="stroke:#181818;stroke-width:0.5;"/><text x="279" y="303.292" fill="#000" font-size="13" textLength="114.156" font-family="Arial">WritingComponents</text></g><!--entity VM--><g class="entity" data-qualified-name="Android.VM" id="ent0005" data-source-line="11"><rect x="612.5" y="189.099" width="126.715" height="44.949" fill="#F1F1F1" style="stroke:#181818;stroke-width:0.5;" rx="2.5" ry="2.5"/><rect x="719.215" y="194.099" width="15" height="10" fill="#F1F1F1" style="stroke:#181818;stroke-width:0.5;"/><rect x="717.215" y="196.099" width="4" height="2" fill="#F1F1F1" style="stroke:#181818;stroke-width:0.5;"/><rect x="717.215" y="200.099" width="4" height="2" fill="#F1F1F1" style="stroke:#181818;stroke-width:0.5;"/><text x="627.5" y="221.292" fill="#000" font-size="13" textLength="86.715" font-family="Arial">AppViewModel</text></g><!--entity RS--><g class="entity" data-qualified-name="Android.RS" id="ent0006" data-source-line="12"><rect x="380" y="189.099" width="214.129" height="44.949" fill="#F1F1F1" style="stroke:#181818;stroke-width:0.5;" rx="2.5" ry="2.5"/><rect x="574.129" y="194.099" width="15" height="10" fill="#F1F1F1" style="stroke:#181818;stroke-width:0.5;"/><rect x="572.129" y="196.099" width="4" height="2" fill="#F1F1F1" style="stroke:#181818;stroke-width:0.5;"/><rect x="572.129" y="200.099" width="4" height="2" fill="#F1F1F1" style="stroke:#181818;stroke-width:0.5;"/><text x="395" y="221.292" fill="#000" font-size="13" textLength="174.129" font-family="Arial">Results y ResultsComponents</text></g><!--entity SS--><g class="entity" data-qualified-name="Android.SS" id="ent0007" data-source-line="13"><rect x="230" y="189.099" width="131.781" height="44.949" fill="#F1F1F1" style="stroke:#181818;stroke-width:0.5;" rx="2.5" ry="2.5"/><rect x="341.781" y="194.099" width="15" height="10" fill="#F1F1F1" style="stroke:#181818;stroke-width:0.5;"/><rect x="339.781" y="196.099" width="4" height="2" fill="#F1F1F1" style="stroke:#181818;stroke-width:0.5;"/><rect x="339.781" y="200.099" width="4" height="2" fill="#F1F1F1" style="stroke:#181818;stroke-width:0.5;"/><text x="245" y="221.292" fill="#000" font-size="13" textLength="91.781" font-family="Arial">SeasonsScreen</text></g><!--entity DM--><g class="entity" data-qualified-name="Android.DM" id="ent0008" data-source-line="14"><rect x="436.5" y="271.099" width="119.479" height="44.949" fill="#F1F1F1" style="stroke:#181818;stroke-width:0.5;" rx="2.5" ry="2.5"/><rect x="535.979" y="276.099" width="15" height="10" fill="#F1F1F1" style="stroke:#181818;stroke-width:0.5;"/><rect x="533.979" y="278.099" width="4" height="2" fill="#F1F1F1" style="stroke:#181818;stroke-width:0.5;"/><rect x="533.979" y="282.099" width="4" height="2" fill="#F1F1F1" style="stroke:#181818;stroke-width:0.5;"/><text x="451.5" y="303.292" fill="#000" font-size="13" textLength="79.479" font-family="Arial">DraftManager</text></g><!--entity SF--><g class="entity" data-qualified-name="Android.SF" id="ent0009" data-source-line="15"><rect x="30" y="271.099" width="216.287" height="44.949" fill="#F1F1F1" style="stroke:#181818;stroke-width:0.5;" rx="2.5" ry="2.5"/><rect x="226.287" y="276.099" width="15" height="10" fill="#F1F1F1" style="stroke:#181818;stroke-width:0.5;"/><rect x="224.287" y="278.099" width="4" height="2" fill="#F1F1F1" style="stroke:#181818;stroke-width:0.5;"/><rect x="224.287" y="282.099" width="4" height="2" fill="#F1F1F1" style="stroke:#181818;stroke-width:0.5;"/><text x="45" y="303.292" fill="#000" font-size="13" textLength="176.287" font-family="Arial">SubmissionFactory y admision</text></g><!--entity R--><g class="entity" data-qualified-name="Android.R" id="ent0010" data-source-line="16"><rect x="574" y="271.099" width="166.445" height="44.949" fill="#F1F1F1" style="stroke:#181818;stroke-width:0.5;" rx="2.5" ry="2.5"/><rect x="720.445" y="276.099" width="15" height="10" fill="#F1F1F1" style="stroke:#181818;stroke-width:0.5;"/><rect x="718.445" y="278.099" width="4" height="2" fill="#F1F1F1" style="stroke:#181818;stroke-width:0.5;"/><rect x="718.445" y="282.099" width="4" height="2" fill="#F1F1F1" style="stroke:#181818;stroke-width:0.5;"/><text x="589" y="303.292" fill="#000" font-size="13" textLength="126.445" font-family="Arial">Repositorios Firebase</text></g><!--entity E--><g class="entity" data-qualified-name="Functions.E" id="ent0012" data-source-line="19"><rect x="230" y="432.099" width="206.213" height="44.949" fill="#F1F1F1" style="stroke:#181818;stroke-width:0.5;" rx="2.5" ry="2.5"/><rect x="416.213" y="437.099" width="15" height="10" fill="#F1F1F1" style="stroke:#181818;stroke-width:0.5;"/><rect x="414.213" y="439.099" width="4" height="2" fill="#F1F1F1" style="stroke:#181818;stroke-width:0.5;"/><rect x="414.213" y="443.099" width="4" height="2" fill="#F1F1F1" style="stroke:#181818;stroke-width:0.5;"/><text x="245" y="464.292" fill="#000" font-size="13" textLength="166.213" font-family="Arial">submissionEvaluationEngine</text></g><!--entity M--><g class="entity" data-qualified-name="Functions.M" id="ent0013" data-source-line="20"><rect x="226" y="531.099" width="132.498" height="44.949" fill="#F1F1F1" style="stroke:#181818;stroke-width:0.5;" rx="2.5" ry="2.5"/><rect x="338.498" y="536.099" width="15" height="10" fill="#F1F1F1" style="stroke:#181818;stroke-width:0.5;"/><rect x="336.498" y="538.099" width="4" height="2" fill="#F1F1F1" style="stroke:#181818;stroke-width:0.5;"/><rect x="336.498" y="542.099" width="4" height="2" fill="#F1F1F1" style="stroke:#181818;stroke-width:0.5;"/><text x="241" y="563.292" fill="#000" font-size="13" textLength="92.498" font-family="Arial">rankedMatching</text></g><!--entity C--><g class="entity" data-qualified-name="Functions.C" id="ent0014" data-source-line="21"><rect x="179.5" y="613.099" width="224.99" height="44.949" fill="#F1F1F1" style="stroke:#181818;stroke-width:0.5;" rx="2.5" ry="2.5"/><rect x="384.49" y="618.099" width="15" height="10" fill="#F1F1F1" style="stroke:#181818;stroke-width:0.5;"/><rect x="382.49" y="620.099" width="4" height="2" fill="#F1F1F1" style="stroke:#181818;stroke-width:0.5;"/><rect x="382.49" y="624.099" width="4" height="2" fill="#F1F1F1" style="stroke:#181818;stroke-width:0.5;"/><text x="194.5" y="645.292" fill="#000" font-size="13" textLength="184.99" font-family="Arial">calculateDynamicRatingChange</text></g><!--entity A--><g class="entity" data-qualified-name="Functions.A" id="ent0015" data-source-line="22"><rect x="600" y="432.099" width="136.097" height="44.949" fill="#F1F1F1" style="stroke:#181818;stroke-width:0.5;" rx="2.5" ry="2.5"/><rect x="716.097" y="437.099" width="15" height="10" fill="#F1F1F1" style="stroke:#181818;stroke-width:0.5;"/><rect x="714.097" y="439.099" width="4" height="2" fill="#F1F1F1" style="stroke:#181818;stroke-width:0.5;"/><rect x="714.097" y="443.099" width="4" height="2" fill="#F1F1F1" style="stroke:#181818;stroke-width:0.5;"/><text x="615" y="464.292" fill="#000" font-size="13" textLength="96.097" font-family="Arial">applyMeritAction</text></g><!--entity AC--><g class="entity" data-qualified-name="Functions.AC" id="ent0016" data-source-line="23"><rect x="454.5" y="432.099" width="127.433" height="44.949" fill="#F1F1F1" style="stroke:#181818;stroke-width:0.5;" rx="2.5" ry="2.5"/><rect x="561.933" y="437.099" width="15" height="10" fill="#F1F1F1" style="stroke:#181818;stroke-width:0.5;"/><rect x="559.933" y="439.099" width="4" height="2" fill="#F1F1F1" style="stroke:#181818;stroke-width:0.5;"/><rect x="559.933" y="443.099" width="4" height="2" fill="#F1F1F1" style="stroke:#181818;stroke-width:0.5;"/><text x="469.5" y="464.292" fill="#000" font-size="13" textLength="87.433" font-family="Arial">accountAccess</text></g><!--entity L--><g class="entity" data-qualified-name="Functions.L" id="ent0017" data-source-line="24"><rect x="74" y="531.099" width="122.399" height="44.949" fill="#F1F1F1" style="stroke:#181818;stroke-width:0.5;" rx="2.5" ry="2.5"/><rect x="176.399" y="536.099" width="15" height="10" fill="#F1F1F1" style="stroke:#181818;stroke-width:0.5;"/><rect x="174.399" y="538.099" width="4" height="2" fill="#F1F1F1" style="stroke:#181818;stroke-width:0.5;"/><rect x="174.399" y="542.099" width="4" height="2" fill="#F1F1F1" style="stroke:#181818;stroke-width:0.5;"/><text x="89" y="563.292" fill="#000" font-size="13" textLength="82.399" font-family="Arial">seasonLedger</text></g><!--entity F--><g class="entity" data-qualified-name="Functions.F" id="ent0018" data-source-line="25"><rect x="74" y="432.099" width="138.281" height="44.949" fill="#F1F1F1" style="stroke:#181818;stroke-width:0.5;" rx="2.5" ry="2.5"/><rect x="192.281" y="437.099" width="15" height="10" fill="#F1F1F1" style="stroke:#181818;stroke-width:0.5;"/><rect x="190.281" y="439.099" width="4" height="2" fill="#F1F1F1" style="stroke:#181818;stroke-width:0.5;"/><rect x="190.281" y="443.099" width="4" height="2" fill="#F1F1F1" style="stroke:#181818;stroke-width:0.5;"/><text x="89" y="464.292" fill="#000" font-size="13" textLength="98.281" font-family="Arial">seasonFunctions</text></g><!--entity R8--><g class="entity" data-qualified-name="Functions.R8" id="ent0019" data-source-line="26"><rect x="376" y="531.099" width="188.142" height="44.949" fill="#F1F1F1" style="stroke:#181818;stroke-width:0.5;" rx="2.5" ry="2.5"/><rect x="544.142" y="536.099" width="15" height="10" fill="#F1F1F1" style="stroke:#181818;stroke-width:0.5;"/><rect x="542.142" y="538.099" width="4" height="2" fill="#F1F1F1" style="stroke:#181818;stroke-width:0.5;"/><rect x="542.142" y="542.099" width="4" height="2" fill="#F1F1F1" style="stroke:#181818;stroke-width:0.5;"/><text x="391" y="563.292" fill="#000" font-size="13" textLength="148.142" font-family="Arial">evaluateWithR8 autentico</text></g><g class="link" data-entity-1="ent0002" data-entity-2="ent0003" id="lnk21" data-link-type="dependency"><polygon points="198.371,189.053,208.143,190.281,203.157,187.608,205.83,182.622,198.371,189.053" fill="#181818" style="stroke:#181818;stroke-width:1;stroke-linejoin:miter;stroke-miterlimit:10;"/><path d="M346.445,144.351 C305.749,156.637 250.25,173.391 203.157,187.608" style="stroke:#181818;stroke-width:1;" fill="none"/></g><g class="link" data-entity-1="ent0002" data-entity-2="ent0005" id="lnk22" data-link-type="dependency"><polygon points="612.316,191.777,604.781,185.436,607.513,190.389,602.559,193.121,612.316,191.777" fill="#181818" style="stroke:#181818;stroke-width:1;stroke-linejoin:miter;stroke-miterlimit:10;"/><path d="M437.746,143.055 C480.525,154.758 546.165,172.851 603,189.099 C606.049,189.97 604.364,189.479 607.513,190.389" style="stroke:#181818;stroke-width:1;" fill="none"/></g><g class="link" data-entity-1="ent0002" data-entity-2="ent0006" id="lnk23" data-link-type="dependency"><polygon points="461.401,189.042,457.093,180.185,457.577,185.821,451.94,186.304,461.401,189.042" fill="#181818" style="stroke:#181818;stroke-width:1;stroke-linejoin:miter;stroke-miterlimit:10;"/><path d="M417.959,152.459 C431.474,163.84 444.115,174.485 457.577,185.821" style="stroke:#181818;stroke-width:1;" fill="none"/></g><g class="link" data-entity-1="ent0002" data-entity-2="ent0007" id="lnk24" data-link-type="dependency"><polygon points="322,188.932,331.474,186.243,325.841,185.731,326.353,180.098,322,188.932" fill="#181818" style="stroke:#181818;stroke-width:1;stroke-linejoin:miter;stroke-miterlimit:10;"/><path d="M366.021,152.248 C352.361,163.631 339.504,174.345 325.841,185.731" style="stroke:#181818;stroke-width:1;" fill="none"/></g><g class="link" data-entity-1="ent0003" data-entity-2="ent0004" id="lnk25" data-link-type="dependency"><polygon points="283.268,271.016,276.238,264.118,278.584,269.266,273.437,271.612,283.268,271.016" fill="#181818" style="stroke:#181818;stroke-width:1;stroke-linejoin:miter;stroke-miterlimit:10;"/><path d="M184.63,234.142 C215.207,245.573 247.991,257.829 278.584,269.266" style="stroke:#181818;stroke-width:1;" fill="none"/></g><g class="link" data-entity-1="ent0003" data-entity-2="ent0008" id="lnk26" data-link-type="dependency"><polygon points="436.288,273.494,428.642,267.286,431.461,272.191,426.557,275.01,436.288,273.494" fill="#181818" style="stroke:#181818;stroke-width:1;stroke-linejoin:miter;stroke-miterlimit:10;"/><path d="M211.51,232.126 C214.712,232.803 217.883,233.463 221,234.099 C312.143,252.696 336.643,248.997 427,271.099 C430.047,271.844 428.33,271.345 431.461,272.191" style="stroke:#181818;stroke-width:1;" fill="none"/></g><g class="link" data-entity-1="ent0003" data-entity-2="ent0009" id="lnk27" data-link-type="dependency"><polygon points="135.036,271.042,137.773,261.581,134.355,266.088,129.847,262.67,135.036,271.042" fill="#181818" style="stroke:#181818;stroke-width:1;stroke-linejoin:miter;stroke-miterlimit:10;"/><path d="M130.006,234.459 C131.571,245.84 132.796,254.752 134.355,266.088" style="stroke:#181818;stroke-width:1;" fill="none"/></g><g class="link" data-entity-1="ent0005" data-entity-2="ent0010" id="lnk28" data-link-type="dependency"><polygon points="662.12,271.042,668.091,263.21,663.275,266.177,660.308,261.361,662.12,271.042" fill="#181818" style="stroke:#181818;stroke-width:1;stroke-linejoin:miter;stroke-miterlimit:10;"/><path d="M670.808,234.459 C668.105,245.84 665.967,254.841 663.275,266.177" style="stroke:#181818;stroke-width:1;" fill="none"/></g><g class="link" data-entity-1="ent0007" data-entity-2="ent0010" id="lnk29" data-link-type="dependency"><polygon points="573.882,273.219,565.938,267.397,568.996,272.156,564.237,275.214,573.882,273.219" fill="#181818" style="stroke:#181818;stroke-width:1;stroke-linejoin:miter;stroke-miterlimit:10;"/><path d="M362.168,231.916 C365.147,232.675 368.101,233.407 371,234.099 C455.954,254.375 478.548,253.037 564,271.099 C567.243,271.784 565.661,271.431 568.996,272.156" style="stroke:#181818;stroke-width:1;" fill="none"/></g><g class="link" data-entity-1="ent0010" data-entity-2="ent0020" id="lnk30" data-link-type="dependency"><polygon points="839.725,552.244,848.778,556.122,844.725,552.176,848.67,548.123,839.725,552.244" fill="#181818" style="stroke:#181818;stroke-width:1;stroke-linejoin:miter;stroke-miterlimit:10;"/><path d="M717.168,316.184 C732.117,321.464 748.12,327.047 763,332.099 C984.725,407.374 1126.404,305.636 1264,495.099 C1268.701,501.572 1269.409,507.205 1264,513.099 C1235.478,544.175 947.845,550.785 844.725,552.176" style="stroke:#181818;stroke-width:1;" fill="none"/><text x="1247" y="459.792" fill="#000" font-size="13" textLength="80.203" font-family="Arial">SDK concreto</text></g><g class="link" data-entity-1="ent0010" data-entity-2="ent0015" id="lnk31" data-link-type="dependency"><polygon points="666.512,432.087,669.881,422.832,666.167,427.099,661.9,423.384,666.512,432.087" fill="#181818" style="stroke:#181818;stroke-width:1;stroke-linejoin:miter;stroke-miterlimit:10;"/><path d="M658.506,316.374 C660.613,346.822 664.07,396.792 666.167,427.099" style="stroke:#181818;stroke-width:1;" fill="none"/><text x="664" y="354.292" fill="#000" font-size="13" textLength="44.084" font-family="Arial">callable</text></g><g class="link" data-entity-1="ent0010" data-entity-2="ent0016" id="lnk32" data-link-type="dependency"><polygon points="518.688,431.737,523.361,423.067,519.068,426.751,515.384,422.458,518.688,431.737" fill="#181818" style="stroke:#181818;stroke-width:1;stroke-linejoin:miter;stroke-miterlimit:10;"/><path d="M603.564,316.162 C577.848,326.74 552.092,337.722 550,340.099 C527.275,365.917 520.975,401.743 519.068,426.751" style="stroke:#181818;stroke-width:1;" fill="none"/><text x="552" y="354.292" fill="#000" font-size="13" textLength="103.34" font-family="Arial">cierre autenticado</text></g><g class="link" data-entity-1="ent0010" data-entity-2="ent0018" id="lnk33" data-link-type="dependency"><polygon points="155.823,432.009,164.098,426.669,158.561,427.826,157.404,422.288,155.823,432.009" fill="#181818" style="stroke:#181818;stroke-width:1;stroke-linejoin:miter;stroke-miterlimit:10;"/><path d="M612.081,316.218 C597.123,322.46 580.151,328.541 564,332.099 C494.9,347.317 475.435,333.364 405,340.099 C322.785,347.96 293.811,327.116 221,366.099 C192.474,381.371 172.031,407.242 158.561,427.826" style="stroke:#181818;stroke-width:1;" fill="none"/><text x="407" y="354.292" fill="#000" font-size="13" textLength="127.918" font-family="Arial">callables autenticados</text></g><g class="link" data-entity-1="ent0020" data-entity-2="ent0012" id="lnk34" data-link-type="dependency"><polygon points="436.065,475.84,444.384,481.112,441.011,476.57,445.553,473.198,436.065,475.84" fill="#181818" style="stroke:#181818;stroke-width:1;stroke-linejoin:miter;stroke-miterlimit:10;"/><path d="M768.5,536.28 C764.309,534.478 760.075,532.713 756,531.099 C733.263,522.091 725.479,524.795 704,513.099 C692.6,506.891 693.102,499.794 681,495.099 C631.964,476.075 497.133,484.068 445,477.099 C442.056,476.705 444.019,477.015 441.011,476.57" style="stroke:#181818;stroke-width:1;" fill="none"/><text x="706" y="509.292" fill="#000" font-size="13" textLength="82.393" font-family="Arial">evento creado</text></g><g class="link" data-entity-1="ent0012" data-entity-2="ent0019" id="lnk35" data-link-type="dependency"><polygon points="375.764,532.573,367.583,527.089,370.838,531.716,366.211,534.971,375.764,532.573" fill="#181818" style="stroke:#181818;stroke-width:1;stroke-linejoin:miter;stroke-miterlimit:10;"/><path d="M229.791,476.626 C209.268,485.329 197.846,497.206 212,513.099 C235.062,538.994 332.771,525.55 367,531.099 C369.885,531.566 367.886,531.202 370.838,531.716" style="stroke:#181818;stroke-width:1;" fill="none"/></g><g class="link" data-entity-1="ent0012" data-entity-2="ent0013" id="lnk36" data-link-type="dependency"><polygon points="225.93,532.546,219.591,525.009,221.435,530.357,216.087,532.201,225.93,532.546" fill="#181818" style="stroke:#181818;stroke-width:1;stroke-linejoin:miter;stroke-miterlimit:10;"/><path d="M229.94,473.665 C220.271,479.114 211.628,486.116 205,495.099 C193.551,510.613 202.19,520.981 221.435,530.357" style="stroke:#181818;stroke-width:1;" fill="none"/></g><g class="link" data-entity-1="ent0013" data-entity-2="ent0014" id="lnk37" data-link-type="dependency"><polygon points="292,613.042,296,604.042,292,608.042,288,604.042,292,613.042" fill="#181818" style="stroke:#181818;stroke-width:1;stroke-linejoin:miter;stroke-miterlimit:10;"/><path d="M292,576.459 C292,587.84 292,596.706 292,608.042" style="stroke:#181818;stroke-width:1;" fill="none"/></g><g class="link" data-entity-1="ent0012" data-entity-2="ent0020" id="lnk38" data-link-type="dependency"><polygon points="804.696,531.571,808.111,522.333,804.376,526.581,800.128,522.846,804.696,531.571" fill="#181818" style="stroke:#181818;stroke-width:1;stroke-linejoin:miter;stroke-miterlimit:10;"/><path d="M436.053,475.934 C439.064,476.35 442.052,476.74 445,477.099 C483.105,481.728 760.445,470.604 790,495.099 C800.521,503.818 803.568,514.008 804.376,526.581" style="stroke:#181818;stroke-width:1;" fill="none"/><text x="802" y="509.292" fill="#000" font-size="13" textLength="111.287" font-family="Arial">evaluacion atomica</text></g><g class="link" data-entity-1="ent0013" data-entity-2="ent0020" id="lnk39" data-link-type="dependency"><polygon points="768.302,535.394,761.438,528.331,763.661,533.533,758.459,535.755,768.302,535.394" fill="#181818" style="stroke:#181818;stroke-width:1;stroke-linejoin:miter;stroke-miterlimit:10;"/><path d="M325.478,530.838 C343.221,520.143 365.878,508.562 388,503.099 C467.622,483.434 677.223,508.284 756,531.099 C760.066,532.276 759.581,531.895 763.661,533.533" style="stroke:#181818;stroke-width:1;" fill="none"/><text x="390" y="509.292" fill="#000" font-size="13" textLength="142.346" font-family="Arial">pareja reciproca atomica</text></g><g class="link" data-entity-1="ent0015" data-entity-2="ent0020" id="lnk40" data-link-type="dependency"><polygon points="839.531,550.763,848.741,554.252,844.523,550.483,848.292,546.264,839.531,550.763" fill="#181818" style="stroke:#181818;stroke-width:1;stroke-linejoin:miter;stroke-miterlimit:10;"/><path d="M736.178,456.591 C856.112,459.051 1094.621,467.405 1120,495.099 C1125.405,500.997 1125.294,507.101 1120,513.099 C1101.659,533.875 923.203,546.056 844.523,550.483" style="stroke:#181818;stroke-width:1;" fill="none"/><text x="1126" y="509.292" fill="#000" font-size="13" textLength="132.958" font-family="Arial">transaccion economica</text></g><g class="link" data-entity-1="ent0016" data-entity-2="ent0020" id="lnk41" data-link-type="dependency"><polygon points="839.613,548.375,849.1,551.02,844.56,547.646,847.934,543.106,839.613,548.375" fill="#181818" style="stroke:#181818;stroke-width:1;stroke-linejoin:miter;stroke-miterlimit:10;"/><path d="M581.895,475.332 C584.959,475.99 588.005,476.585 591,477.099 C627.958,483.439 902.202,467.886 928,495.099 C957.06,525.752 890.706,540.848 844.56,547.646" style="stroke:#181818;stroke-width:1;" fill="none"/><text x="936" y="509.292" fill="#000" font-size="13" textLength="165.471" font-family="Arial">marcador de acceso cerrado</text></g><g class="link" data-entity-1="ent0020" data-entity-2="ent0018" id="lnk42" data-link-type="dependency"><polygon points="212.153,475.477,220.191,481.169,217.056,476.46,221.764,473.325,212.153,475.477" fill="#181818" style="stroke:#181818;stroke-width:1;stroke-linejoin:miter;stroke-miterlimit:10;"/><path d="M768.298,535.071 C764.218,533.531 760.064,532.158 756,531.099 C668.781,508.363 636.166,550.15 554,513.099 C543.396,508.317 545.678,499.712 535,495.099 C470.84,467.379 289.965,488.448 221,477.099 C218.089,476.62 220.034,477.058 217.056,476.46" style="stroke:#181818;stroke-width:1;" fill="none"/><text x="556" y="509.292" fill="#000" font-size="13" textLength="119.241" font-family="Arial">creado y actualizado</text></g><g class="link" data-entity-1="ent0018" data-entity-2="ent0017" id="lnk43" data-link-type="dependency"><polygon points="136.798,530.796,141.524,522.155,137.209,525.813,133.551,521.498,136.798,530.796" fill="#181818" style="stroke:#181818;stroke-width:1;stroke-linejoin:miter;stroke-miterlimit:10;"/><path d="M141.225,477.126 C139.908,493.089 138.531,509.785 137.209,525.813" style="stroke:#181818;stroke-width:1;" fill="none"/></g><g class="link" data-entity-1="ent0017" data-entity-2="ent0020" id="lnk44" data-link-type="dependency"><polygon points="768.359,535.186,761.432,528.185,763.702,533.367,758.521,535.637,768.359,535.186" fill="#181818" style="stroke:#181818;stroke-width:1;stroke-linejoin:miter;stroke-miterlimit:10;"/><path d="M161.772,530.892 C176.121,520.211 194.687,508.627 213.5,503.099 C262.357,488.741 716.565,520.752 756,531.099 C760.095,532.173 759.611,531.768 763.702,533.367" style="stroke:#181818;stroke-width:1;" fill="none"/><text x="215.5" y="509.292" fill="#000" font-size="13" textLength="165.477" font-family="Arial">acuse y liquidacion atomicos</text></g><?plantuml-src RLJBRjim4BphAxOVa015BqOF1Hm_WA1sK5X0V2XwM5DhcJL5gYILm2dwxnsIYcmKlQrcPvUpio8_z9xRZidmnGsHGYUHBLVXh6tFdZlgd7Ngv5qd5FqWDvbmuiQzQjlIaKsupJHovC74jRFnYL4uzvhD__ErVXFw-AcAEXgXHtlsC_8IUcS37xJH3JSIw8AINcmZLcaETDIMZOIgPtNc5lrjuvrkw7T5t-TzltCk_Y3mKW1extLCCYyqHgj6H-SpPN_DBro7OyN6K3ABqkrPo-lMDM8o-hm5kfC0-KdM6FrJkgj1geK3fgYL5x4PhXEyz7oCMtZSIb6mJ1thuT3f4BIpQrRGTa5lRW01ARNhV6xlGfAkNQ2rzdBW8EN4wi_andgmAg8kP3_2r7drmcRWb5dPLjjIk0B5iprBi-MeJh0XmqcJOgC6mr6M5ykTLZlEBftOjgKs6SHzRovRWOFpV6XEp5D2AJTOe4f2SMMU-26xif7cVVpD14wwCvxcbQ9OzZgUTZFY8S9YhLmPUOQP6uwSJCXk13WZsTA7AgsUxkw-OC5JYDrDCLOqnTZBld0NOu2Tb02sFszBGLNNOx0hd0VwJFNoAobdiUFeHdmE6DOPFXXvXnO9q-AJl748t9qnkxuf2BVvKE6Cn5Y18I-07U6aLBagKcPZiAsAoCNudRKLznGS9OuE2-IHbREuYVAJSTUKxhrJF77cLqx4dn6moDH2CEP8M5mP7VkarED-4gTLGo76J197xNcwB3hzqYeERFHRogzpUbDjhjrO3LZbXOp-DU3ctqY75zP5eOEB-2Ptp1VnoH7uVDGUBzZoyHjf6wNrREuhUcoIZNW-qAyLAxwqwyN3Nr62pWPDxYiyAvHw_mK0?></g></svg>