<svg xmlns="http://www.w3.org/2000/svg" xmlns:xlink="http://www.w3.org/1999/xlink" version="1.1" data-diagram-type="CLASS" style="width:857px;height:786px;background:#FFFFFF;" width="857px" height="786px" viewBox="0 0 857 786" zoomAndPan="magnify" preserveAspectRatio="none" contentStyleType="text/css"><?plantuml 1.2026.8?><defs/><g font-family="sans-serif" lengthAdjust="spacing"><g class="title" data-source-line="6"><text x="306.721" y="23.132" fill="#000" font-size="14" textLength="236.558" font-weight="700" font-family="Arial">Firestore rutas y referencias finales</text></g><!--class User--><g class="entity" data-qualified-name="User" id="ent0001" data-source-line="7"><rect x="193.5" y="604.099" width="197.713" height="165.59" fill="#F1F1F1" style="stroke:#181818;stroke-width:0.5;" rx="2.5" ry="2.5"/><ellipse cx="257.64" cy="619.099" rx="10" ry="10" fill="#C2C2C2" style="stroke:#181818;stroke-width:1;"/><path d="M256.703,619.88 L256.703,621.802 L260.031,621.802 L260.031,621.099 Q260.031,620.63 260.203,620.427 Q260.39,620.224 260.672,620.224 Q260.969,620.224 261.14,620.427 Q261.328,620.63 261.328,621.099 L261.328,623.099 L255.203,623.099 Q254.734,623.099 254.531,622.927 Q254.328,622.739 254.328,622.442 Q254.328,622.161 254.531,621.989 Q254.734,621.802 255.203,621.802 L255.406,621.802 L255.406,616.708 L255.203,616.708 Q254.734,616.708 254.531,616.536 Q254.328,616.349 254.328,616.052 Q254.328,615.755 254.531,615.583 Q254.734,615.396 255.203,615.396 L261.047,615.411 L261.047,617.38 Q261.047,617.849 260.859,618.052 Q260.687,618.255 260.39,618.255 Q260.094,618.255 259.906,618.052 Q259.734,617.849 259.734,617.38 L259.734,616.708 L256.703,616.708 L256.703,618.583 L257.844,618.583 Q257.844,618.083 257.937,617.927 Q258.14,617.614 258.5,617.614 Q258.781,617.614 258.969,617.817 Q259.156,618.021 259.156,618.489 L259.156,619.989 Q259.156,620.411 259.047,620.552 Q258.844,620.864 258.5,620.864 Q258.14,620.864 257.937,620.552 Q257.844,620.396 257.844,619.88 L256.703,619.88 Z " fill="#000"/><text x="276.64" y="623.818" fill="#000" font-size="13" textLength="61.433" font-family="Arial">users/{uid}</text><line x1="194.5" y1="634.099" x2="390.213" y2="634.099" style="stroke:#181818;stroke-width:0.5;"/><text x="199.5" y="650.292" fill="#000" font-size="13" textLength="17.348" font-family="Arial">uid</text><text x="199.5" y="665.241" fill="#000" font-size="13" textLength="32.519" font-family="Arial">rating</text><text x="199.5" y="680.19" fill="#000" font-size="13" textLength="28.888" font-family="Arial">merit</text><text x="199.5" y="695.139" fill="#000" font-size="13" textLength="49.137" font-family="Arial">isPlaced</text><text x="199.5" y="710.087" fill="#000" font-size="13" textLength="105.498" font-family="Arial">currentlyInRanked</text><text x="199.5" y="725.036" fill="#000" font-size="13" textLength="173.431" font-family="Arial">accountClosed solo Functions</text><text x="199.5" y="739.985" fill="#000" font-size="13" textLength="185.713" font-family="Arial">accountClosedAt solo Functions</text><text x="199.5" y="754.934" fill="#000" font-size="13" textLength="173.45" font-family="Arial">reputation historica congelada</text><line x1="194.5" y1="761.688" x2="390.213" y2="761.688" style="stroke:#181818;stroke-width:0.5;"/></g><!--class Sub--><g class="entity" data-qualified-name="Sub" id="ent0002" data-source-line="17"><rect x="6" y="224.099" width="256.956" height="165.59" fill="#F1F1F1" style="stroke:#181818;stroke-width:0.5;" rx="2.5" ry="2.5"/><ellipse cx="83.509" cy="239.099" rx="10" ry="10" fill="#C2C2C2" style="stroke:#181818;stroke-width:1;"/><path d="M82.571,239.88 L82.571,241.802 L85.899,241.802 L85.899,241.099 Q85.899,240.63 86.071,240.427 Q86.259,240.224 86.54,240.224 Q86.837,240.224 87.009,240.427 Q87.196,240.63 87.196,241.099 L87.196,243.099 L81.071,243.099 Q80.602,243.099 80.399,242.927 Q80.196,242.739 80.196,242.442 Q80.196,242.161 80.399,241.989 Q80.602,241.802 81.071,241.802 L81.274,241.802 L81.274,236.708 L81.071,236.708 Q80.602,236.708 80.399,236.536 Q80.196,236.349 80.196,236.052 Q80.196,235.755 80.399,235.583 Q80.602,235.396 81.071,235.396 L86.915,235.411 L86.915,237.38 Q86.915,237.849 86.727,238.052 Q86.555,238.255 86.259,238.255 Q85.962,238.255 85.774,238.052 Q85.602,237.849 85.602,237.38 L85.602,236.708 L82.571,236.708 L82.571,238.583 L83.712,238.583 Q83.712,238.083 83.805,237.927 Q84.009,237.614 84.368,237.614 Q84.649,237.614 84.837,237.817 Q85.024,238.021 85.024,238.489 L85.024,239.989 Q85.024,240.411 84.915,240.552 Q84.712,240.864 84.368,240.864 Q84.009,240.864 83.805,240.552 Q83.712,240.396 83.712,239.88 L82.571,239.88 Z " fill="#000"/><text x="102.509" y="243.818" fill="#000" font-size="13" textLength="93.939" font-family="Arial">submissions/{id}</text><line x1="7" y1="254.099" x2="261.956" y2="254.099" style="stroke:#181818;stroke-width:0.5;"/><text x="12" y="270.292" fill="#000" font-size="13" textLength="10.118" font-family="Arial">id</text><text x="12" y="285.241" fill="#000" font-size="13" textLength="47.703" font-family="Arial">authorId</text><text x="12" y="300.19" fill="#000" font-size="13" textLength="244.956" font-family="Arial">gamemodeName y gamemode compatible</text><text x="12" y="315.139" fill="#000" font-size="13" textLength="56.367" font-family="Arial">playmode</text><text x="12" y="330.087" fill="#000" font-size="13" textLength="120.663" font-family="Arial">status y matchStatus</text><text x="12" y="345.036" fill="#000" font-size="13" textLength="59.268" font-family="Arial">evaluation</text><text x="12" y="359.985" fill="#000" font-size="13" textLength="72.249" font-family="Arial">matchResult</text><text x="12" y="374.934" fill="#000" font-size="13" textLength="125.036" font-family="Arial">seasonRatingChange</text><line x1="7" y1="381.688" x2="261.956" y2="381.688" style="stroke:#181818;stroke-width:0.5;"/></g><!--class Season--><g class="entity" data-qualified-name="Season" id="ent0003" data-source-line="27"><rect x="281" y="254.099" width="151.386" height="105.795" fill="#F1F1F1" style="stroke:#181818;stroke-width:0.5;" rx="2.5" ry="2.5"/><ellipse cx="295" cy="269.099" rx="10" ry="10" fill="#C2C2C2" style="stroke:#181818;stroke-width:1;"/><path d="M294.063,269.88 L294.063,271.802 L297.391,271.802 L297.391,271.099 Q297.391,270.63 297.563,270.427 Q297.75,270.224 298.031,270.224 Q298.328,270.224 298.5,270.427 Q298.688,270.63 298.688,271.099 L298.688,273.099 L292.563,273.099 Q292.094,273.099 291.891,272.927 Q291.688,272.739 291.688,272.442 Q291.688,272.161 291.891,271.989 Q292.094,271.802 292.563,271.802 L292.766,271.802 L292.766,266.708 L292.563,266.708 Q292.094,266.708 291.891,266.536 Q291.688,266.349 291.688,266.052 Q291.688,265.755 291.891,265.583 Q292.094,265.396 292.563,265.396 L298.406,265.411 L298.406,267.38 Q298.406,267.849 298.219,268.052 Q298.047,268.255 297.75,268.255 Q297.453,268.255 297.266,268.052 Q297.094,267.849 297.094,267.38 L297.094,266.708 L294.063,266.708 L294.063,268.583 L295.203,268.583 Q295.203,268.083 295.297,267.927 Q295.5,267.614 295.859,267.614 Q296.141,267.614 296.328,267.817 Q296.516,268.021 296.516,268.489 L296.516,269.989 Q296.516,270.411 296.406,270.552 Q296.203,270.864 295.859,270.864 Q295.5,270.864 295.297,270.552 Q295.203,270.396 295.203,269.88 L294.063,269.88 Z " fill="#000"/><text x="308" y="273.818" fill="#000" font-size="13" textLength="121.386" font-family="Arial">seasons/{YYYY-MM}</text><line x1="282" y1="284.099" x2="431.386" y2="284.099" style="stroke:#181818;stroke-width:0.5;"/><text x="287" y="300.292" fill="#000" font-size="13" textLength="91.025" font-family="Arial">start y end UTC</text><text x="287" y="315.241" fill="#000" font-size="13" textLength="34.684" font-family="Arial">status</text><text x="287" y="330.19" fill="#000" font-size="13" textLength="80.958" font-family="Arial">pendingCount</text><text x="287" y="345.139" fill="#000" font-size="13" textLength="49.861" font-family="Arial">closedAt</text><line x1="282" y1="351.894" x2="431.386" y2="351.894" style="stroke:#181818;stroke-width:0.5;"/></g><!--class Member--><g class="entity" data-qualified-name="Member" id="ent0004" data-source-line="33"><rect x="262.5" y="444.099" width="188.266" height="105.795" fill="#F1F1F1" style="stroke:#181818;stroke-width:0.5;" rx="2.5" ry="2.5"/><ellipse cx="276.5" cy="459.099" rx="10" ry="10" fill="#C2C2C2" style="stroke:#181818;stroke-width:1;"/><path d="M275.563,459.88 L275.563,461.802 L278.891,461.802 L278.891,461.099 Q278.891,460.63 279.063,460.427 Q279.25,460.224 279.531,460.224 Q279.828,460.224 280,460.427 Q280.188,460.63 280.188,461.099 L280.188,463.099 L274.063,463.099 Q273.594,463.099 273.391,462.927 Q273.188,462.739 273.188,462.442 Q273.188,462.161 273.391,461.989 Q273.594,461.802 274.063,461.802 L274.266,461.802 L274.266,456.708 L274.063,456.708 Q273.594,456.708 273.391,456.536 Q273.188,456.349 273.188,456.052 Q273.188,455.755 273.391,455.583 Q273.594,455.396 274.063,455.396 L279.906,455.411 L279.906,457.38 Q279.906,457.849 279.719,458.052 Q279.547,458.255 279.25,458.255 Q278.953,458.255 278.766,458.052 Q278.594,457.849 278.594,457.38 L278.594,456.708 L275.563,456.708 L275.563,458.583 L276.703,458.583 Q276.703,458.083 276.797,457.927 Q277,457.614 277.359,457.614 Q277.641,457.614 277.828,457.817 Q278.016,458.021 278.016,458.489 L278.016,459.989 Q278.016,460.411 277.906,460.552 Q277.703,460.864 277.359,460.864 Q277,460.864 276.797,460.552 Q276.703,460.396 276.703,459.88 L275.563,459.88 Z " fill="#000"/><text x="289.5" y="463.818" fill="#000" font-size="13" textLength="158.266" font-family="Arial">seasons/{id}/members/{uid}</text><line x1="263.5" y1="474.099" x2="449.766" y2="474.099" style="stroke:#181818;stroke-width:0.5;"/><text x="268.5" y="490.292" fill="#000" font-size="13" textLength="36.131" font-family="Arial">userId</text><text x="268.5" y="505.241" fill="#000" font-size="13" textLength="61.433" font-family="Arial">rating neto</text><text x="268.5" y="520.19" fill="#000" font-size="13" textLength="70.808" font-family="Arial">meritEarned</text><text x="268.5" y="535.139" fill="#000" font-size="13" textLength="99.715" font-family="Arial">submissionCount</text><line x1="263.5" y1="541.894" x2="449.766" y2="541.894" style="stroke:#181818;stroke-width:0.5;"/></g><!--class Ledger--><g class="entity" data-qualified-name="Ledger" id="ent0005" data-source-line="39"><rect x="239" y="49.099" width="234.502" height="120.744" fill="#F1F1F1" style="stroke:#181818;stroke-width:0.5;" rx="2.5" ry="2.5"/><ellipse cx="253" cy="64.099" rx="10" ry="10" fill="#C2C2C2" style="stroke:#181818;stroke-width:1;"/><path d="M252.063,64.88 L252.063,66.802 L255.391,66.802 L255.391,66.099 Q255.391,65.63 255.563,65.427 Q255.75,65.224 256.031,65.224 Q256.328,65.224 256.5,65.427 Q256.688,65.63 256.688,66.099 L256.688,68.099 L250.563,68.099 Q250.094,68.099 249.891,67.927 Q249.688,67.739 249.688,67.442 Q249.688,67.161 249.891,66.989 Q250.094,66.802 250.563,66.802 L250.766,66.802 L250.766,61.708 L250.563,61.708 Q250.094,61.708 249.891,61.536 Q249.688,61.349 249.688,61.052 Q249.688,60.755 249.891,60.583 Q250.094,60.396 250.563,60.396 L256.406,60.411 L256.406,62.38 Q256.406,62.849 256.219,63.052 Q256.047,63.255 255.75,63.255 Q255.453,63.255 255.266,63.052 Q255.094,62.849 255.094,62.38 L255.094,61.708 L252.063,61.708 L252.063,63.583 L253.203,63.583 Q253.203,63.083 253.297,62.927 Q253.5,62.614 253.859,62.614 Q254.141,62.614 254.328,62.817 Q254.516,63.021 254.516,63.489 L254.516,64.989 Q254.516,65.411 254.406,65.552 Q254.203,65.864 253.859,65.864 Q253.5,65.864 253.297,65.552 Q253.203,65.396 253.203,64.88 L252.063,64.88 Z " fill="#000"/><text x="266" y="68.818" fill="#000" font-size="13" textLength="204.502" font-family="Arial">seasonAssignments/{submissionId}</text><line x1="240" y1="79.099" x2="472.502" y2="79.099" style="stroke:#181818;stroke-width:0.5;"/><text x="245" y="95.292" fill="#000" font-size="13" textLength="47.703" font-family="Arial">authorId</text><text x="245" y="110.241" fill="#000" font-size="13" textLength="52.762" font-family="Arial">seasonId</text><text x="245" y="125.19" fill="#000" font-size="13" textLength="40.473" font-family="Arial">eligible</text><text x="245" y="140.139" fill="#000" font-size="13" textLength="46.236" font-family="Arial">terminal</text><text x="245" y="155.087" fill="#000" font-size="13" textLength="69.361" font-family="Arial">confirmedAt</text><line x1="240" y1="161.842" x2="472.502" y2="161.842" style="stroke:#181818;stroke-width:0.5;"/></g><!--class Theme--><g class="entity" data-qualified-name="Theme" id="ent0006" data-source-line="46"><rect x="22.5" y="664.099" width="131.899" height="46" fill="#F1F1F1" style="stroke:#181818;stroke-width:0.5;" rx="2.5" ry="2.5"/><ellipse cx="36.5" cy="679.099" rx="10" ry="10" fill="#C2C2C2" style="stroke:#181818;stroke-width:1;"/><path d="M35.563,679.88 L35.563,681.802 L38.891,681.802 L38.891,681.099 Q38.891,680.63 39.063,680.427 Q39.25,680.224 39.531,680.224 Q39.828,680.224 40,680.427 Q40.188,680.63 40.188,681.099 L40.188,683.099 L34.063,683.099 Q33.594,683.099 33.391,682.927 Q33.188,682.739 33.188,682.442 Q33.188,682.161 33.391,681.989 Q33.594,681.802 34.063,681.802 L34.266,681.802 L34.266,676.708 L34.063,676.708 Q33.594,676.708 33.391,676.536 Q33.188,676.349 33.188,676.052 Q33.188,675.755 33.391,675.583 Q33.594,675.396 34.063,675.396 L39.906,675.411 L39.906,677.38 Q39.906,677.849 39.719,678.052 Q39.547,678.255 39.25,678.255 Q38.953,678.255 38.766,678.052 Q38.594,677.849 38.594,677.38 L38.594,676.708 L35.563,676.708 L35.563,678.583 L36.703,678.583 Q36.703,678.083 36.797,677.927 Q37,677.614 37.359,677.614 Q37.641,677.614 37.828,677.817 Q38.016,678.021 38.016,678.489 L38.016,679.989 Q38.016,680.411 37.906,680.552 Q37.703,680.864 37.359,680.864 Q37,680.864 36.797,680.552 Q36.703,680.396 36.703,679.88 L35.563,679.88 Z " fill="#000"/><text x="49.5" y="683.818" fill="#000" font-size="13" textLength="101.899" font-family="Arial">themes/{themeId}</text><line x1="23.5" y1="694.099" x2="153.399" y2="694.099" style="stroke:#181818;stroke-width:0.5;"/><line x1="23.5" y1="702.099" x2="153.399" y2="702.099" style="stroke:#181818;stroke-width:0.5;"/></g><!--class Topic--><g class="entity" data-qualified-name="Topic" id="ent0007" data-source-line="47"><rect x="31" y="474.099" width="114.557" height="46" fill="#F1F1F1" style="stroke:#181818;stroke-width:0.5;" rx="2.5" ry="2.5"/><ellipse cx="45" cy="489.099" rx="10" ry="10" fill="#C2C2C2" style="stroke:#181818;stroke-width:1;"/><path d="M44.063,489.88 L44.063,491.802 L47.391,491.802 L47.391,491.099 Q47.391,490.63 47.563,490.427 Q47.75,490.224 48.031,490.224 Q48.328,490.224 48.5,490.427 Q48.688,490.63 48.688,491.099 L48.688,493.099 L42.563,493.099 Q42.094,493.099 41.891,492.927 Q41.688,492.739 41.688,492.442 Q41.688,492.161 41.891,491.989 Q42.094,491.802 42.563,491.802 L42.766,491.802 L42.766,486.708 L42.563,486.708 Q42.094,486.708 41.891,486.536 Q41.688,486.349 41.688,486.052 Q41.688,485.755 41.891,485.583 Q42.094,485.396 42.563,485.396 L48.406,485.411 L48.406,487.38 Q48.406,487.849 48.219,488.052 Q48.047,488.255 47.75,488.255 Q47.453,488.255 47.266,488.052 Q47.094,487.849 47.094,487.38 L47.094,486.708 L44.063,486.708 L44.063,488.583 L45.203,488.583 Q45.203,488.083 45.297,487.927 Q45.5,487.614 45.859,487.614 Q46.141,487.614 46.328,487.817 Q46.516,488.021 46.516,488.489 L46.516,489.989 Q46.516,490.411 46.406,490.552 Q46.203,490.864 45.859,490.864 Q45.5,490.864 45.297,490.552 Q45.203,490.396 45.203,489.88 L44.063,489.88 Z " fill="#000"/><text x="58" y="493.818" fill="#000" font-size="13" textLength="84.557" font-family="Arial">topics/{topicId}</text><line x1="32" y1="504.099" x2="144.557" y2="504.099" style="stroke:#181818;stroke-width:0.5;"/><line x1="32" y1="512.099" x2="144.557" y2="512.099" style="stroke:#181818;stroke-width:0.5;"/></g><!--class Word--><g class="entity" data-qualified-name="Word" id="ent0008" data-source-line="48"><rect x="492" y="86.599" width="87.091" height="46" fill="#F1F1F1" style="stroke:#181818;stroke-width:0.5;" rx="2.5" ry="2.5"/><ellipse cx="506" cy="101.599" rx="10" ry="10" fill="#C2C2C2" style="stroke:#181818;stroke-width:1;"/><path d="M505.063,102.38 L505.063,104.302 L508.391,104.302 L508.391,103.599 Q508.391,103.13 508.563,102.927 Q508.75,102.724 509.031,102.724 Q509.328,102.724 509.5,102.927 Q509.688,103.13 509.688,103.599 L509.688,105.599 L503.563,105.599 Q503.094,105.599 502.891,105.427 Q502.688,105.239 502.688,104.942 Q502.688,104.661 502.891,104.489 Q503.094,104.302 503.563,104.302 L503.766,104.302 L503.766,99.208 L503.563,99.208 Q503.094,99.208 502.891,99.036 Q502.688,98.849 502.688,98.552 Q502.688,98.255 502.891,98.083 Q503.094,97.896 503.563,97.896 L509.406,97.911 L509.406,99.88 Q509.406,100.349 509.219,100.552 Q509.047,100.755 508.75,100.755 Q508.453,100.755 508.266,100.552 Q508.094,100.349 508.094,99.88 L508.094,99.208 L505.063,99.208 L505.063,101.083 L506.203,101.083 Q506.203,100.583 506.297,100.427 Q506.5,100.114 506.859,100.114 Q507.141,100.114 507.328,100.317 Q507.516,100.521 507.516,100.989 L507.516,102.489 Q507.516,102.911 507.406,103.052 Q507.203,103.364 506.859,103.364 Q506.5,103.364 506.297,103.052 Q506.203,102.896 506.203,102.38 L505.063,102.38 Z " fill="#000"/><text x="519" y="106.318" fill="#000" font-size="13" textLength="57.091" font-family="Arial">words/{id}</text><line x1="493" y1="116.599" x2="578.091" y2="116.599" style="stroke:#181818;stroke-width:0.5;"/><line x1="493" y1="124.599" x2="578.091" y2="124.599" style="stroke:#181818;stroke-width:0.5;"/></g><g class="entity" data-qualified-name="GMN16" id="ent0017" data-source-line="57"><path d="M450,279.599 L450,334.445 A0,0 0 0 0 450,334.445 L840.96,334.445 A0,0 0 0 0 840.96,334.445 L840.96,289.599 L830.96,279.599 L610.322,279.599 L444.78,170.317 L602.322,279.599 L450,279.599 A0,0 0 0 0 450,279.599" style="stroke:#181818;stroke-width:0.5;" fill="#FAFAFA"/><path d="M830.96,279.599 L830.96,289.599 L840.96,289.599 L830.96,279.599" style="stroke:#181818;stroke-width:0.5;" fill="#FAFAFA"/><text x="456" y="296.792" fill="#000" font-size="13" textLength="224.009" font-family="Arial">Referencias de aplicacion, no FK SQL.</text><text x="456" y="311.741" fill="#000" font-size="13" textLength="369.96" font-family="Arial">Colecciones historicas retiradas se preservan sin acceso nuevo.</text><text x="456" y="326.69" fill="#000" font-size="13" textLength="273.127" font-family="Arial">Solo Admin modifica temporadas y sus acuses.</text></g><g class="link" data-entity-1="ent0002" data-entity-2="ent0001" id="lnk9" data-link-type="dependency"><polygon points="230.204,603.908,228.843,594.154,227.561,599.663,222.052,598.381,230.204,603.908" fill="#181818" style="stroke:#181818;stroke-width:1;stroke-linejoin:miter;stroke-miterlimit:10;"/><path d="M173.439,390.122 C175.668,396.14 177.721,402.173 179.5,408.099 C197.887,469.331 179.226,490.552 202.5,550.099 C209.663,568.426 216.928,582.581 227.561,599.663" style="stroke:#181818;stroke-width:1;stroke-dasharray:7,7;" fill="none"/><text x="204.5" y="502.292" fill="#000" font-size="13" textLength="47.703" font-family="Arial">authorId</text></g><g class="link" data-entity-1="ent0002" data-entity-2="ent0007" id="lnk10" data-link-type="dependency"><polygon points="86.258,473.752,89.645,464.504,85.923,468.763,81.663,465.041,86.258,473.752" fill="#181818" style="stroke:#181818;stroke-width:1;stroke-linejoin:miter;stroke-miterlimit:10;"/><path d="M94.448,390.137 C92.5,396.125 90.812,402.15 89.5,408.099 C84.662,430.031 84.715,450.803 85.923,468.763" style="stroke:#181818;stroke-width:1;stroke-dasharray:7,7;" fill="none"/><text x="91.5" y="422.292" fill="#000" font-size="13" textLength="86.728" font-family="Arial">topicId nullable</text></g><g class="link" data-entity-1="ent0007" data-entity-2="ent0006" id="lnk11" data-link-type="dependency"><polygon points="88.5,663.823,92.5,654.823,88.5,658.823,84.5,654.823,88.5,663.823" fill="#181818" style="stroke:#181818;stroke-width:1;stroke-linejoin:miter;stroke-miterlimit:10;"/><path d="M88.5,520.403 C88.5,556.585 88.5,622.66 88.5,658.823" style="stroke:#181818;stroke-width:1;stroke-dasharray:7,7;" fill="none"/><text x="90.5" y="582.292" fill="#000" font-size="13" textLength="46.973" font-family="Arial">themeId</text></g><g class="link" data-entity-1="ent0005" data-entity-2="ent0002" id="lnk12" data-link-type="dependency"><polygon points="210.986,223.927,220.201,220.45,214.544,220.414,214.58,214.757,210.986,223.927" fill="#181818" style="stroke:#181818;stroke-width:1;stroke-linejoin:miter;stroke-miterlimit:10;"/><path d="M271.348,170.203 C263.828,176.084 256.443,182.1 249.5,188.099 C236.621,199.226 227.074,208.042 214.544,220.414" style="stroke:#181818;stroke-width:1;stroke-dasharray:7,7;" fill="none"/><text x="251.5" y="202.292" fill="#000" font-size="13" textLength="99.004" font-family="Arial">ID de documento</text></g><g class="link" data-entity-1="ent0005" data-entity-2="ent0003" id="lnk13" data-link-type="dependency"><polygon points="356.5,254.021,360.5,245.021,356.5,249.021,352.5,245.021,356.5,254.021" fill="#181818" style="stroke:#181818;stroke-width:1;stroke-linejoin:miter;stroke-miterlimit:10;"/><path d="M356.5,170.317 C356.5,197.043 356.5,223.261 356.5,249.021" style="stroke:#181818;stroke-width:1;stroke-dasharray:7,7;" fill="none"/><text x="358.5" y="202.292" fill="#000" font-size="13" textLength="52.762" font-family="Arial">seasonId</text></g><g class="link" data-entity-1="ent0003" data-entity-2="ent0004" id="lnk14" data-link-type="association"><path d="M356.5,360.467 C356.5,386.543 356.5,417.974 356.5,444.011" style="stroke:#181818;stroke-width:1;" fill="none"/><text x="358.5" y="422.292" fill="#000" font-size="13" textLength="100.445" font-family="Arial">subcoleccion real</text></g><g class="link" data-entity-1="ent0004" data-entity-2="ent0001" id="lnk15" data-link-type="dependency"><polygon points="320.421,604.081,327.108,596.851,322.032,599.348,319.535,594.272,320.421,604.081" fill="#181818" style="stroke:#181818;stroke-width:1;stroke-linejoin:miter;stroke-miterlimit:10;"/><path d="M338.672,550.467 C333.013,567.09 328.225,581.157 322.032,599.348" style="stroke:#181818;stroke-width:1;stroke-dasharray:7,7;" fill="none"/><text x="334.5" y="582.292" fill="#000" font-size="13" textLength="22.388" font-family="Arial">UID</text></g><?plantuml-src RLHDRzim3BthLt0zhoc6tN8O4AGj4AmTjgR5i2CZCxPGIJJqqI8h-jz7siv7k_fYauyYdnv9V-eJjW71uuvhWHoeO4IJ7rtiCM60m95jbpWGb5Jf1CaTDlpiOWjRzFaKQMYBrPThZkK7oi55SkW_njVkBy6NhwQuuWckNQ9SE16aMZ333X9jAL6qJgojY-Wf6ueIlOEpcYdbYvVgcjSp4Fn1R7Wn80u32OjGCn0ekMB0vPyUBGbWQvA4nUzMyGxZexhGMgwnB3rdQY2pPxYkqHR7CRz35-K_F54lPDM0pYbxPn4invOyDcXU3tnptGINivwwUDcJNjUDSbRAM4l7QILVhQWMkA51lTt1bAoXbqeRJmPwQPaw3MIfNbMiWCLswy4oG4_ewq3BZC0TPH5TmWapozrLdsM7mlEKum0Alp_odD_UJYG7h_AKMgb8AOeDFDmlzyM5ZdWqeKeb8azYVPHPRduXzzcyRTxju1dQ9srS7Je8aGfFRRp25BLVHo77Sk-BB0HhOn2dL3W6hwPIDzIqOwcZukD1_IBlsb7XGYdeo1djvjQbyEv6fQD0Kc5uxvFVgt4CuTvP3T7t8KIDGyWpf-Pa7dwBQNGePhDluqJFZpJt_Y6305DQYDLxLCuZC8Ge3mqPoPdfqWffbZciBcKFeM5RLIX-4p2sUtvKPVASd-_xDDScMFPahGv-8f5fWaw8FwmkJUH2iE5IE01l9_4Dt9qijl30tilQQAxF46MzliFwrytCm79VWl9nkxBKAox9TcMX2BtyD2WzOOJieguhPHP9w8abmLgtTT588-LNrhYjBcUXqFDuV2Vto796XYxFZ4wrylq7?></g></svg>